<svg width="512" height="512" xmlns="http://www.w3.org/2000/svg">

 <g>
  <title>background</title>
  <rect fill="none" id="canvas_background" height="402" width="582" y="-1" x="-1"/>
 </g>
 <g>
  <title>Layer 1</title>
  <path fill="#1d3a55" id="svg_3" d="m144,268.4l0,89.6c0,6.9 4.5,14 11.4,14l28.6,0l0,52c0,13.3 10.7,24 24,24s24,-10.7 24,-24l0,-52l49,0l0,52c0,7.5 3.4,14.2 8.8,18.6c3.9,3.4 9.1,5.4 14.7,5.4c0.1,0 0.2,0 0.3,0c0.1,0 0.1,0 0.2,0c13.3,0 24,-10.7 24,-24l0,-52l27.6,0c7,0 11.4,-7.1 11.4,-13.9l0,-89.6l0,-76.5l-224,0l0,76.4z"/>
  <path fill="#1d3a55" id="svg_4" d="m408,176c-13.3,0 -24,10.7 -24,24l0,96c0,13.3 10.7,24 24,24s24,-10.7 24,-24l0,-96c0,-13.3 -10.7,-24 -24,-24z"/>
  <path fill="#1d3a55" id="svg_5" d="m104,176c-13.3,0 -24,10.7 -24,24l0,96c0,13.3 10.7,24 24,24s24,-10.7 24,-24l0,-96c0,-13.3 -10.7,-24 -24,-24z"/>
  <path fill="#1d3a55" id="svg_7" d="m311.2,88.262305l18.5,-21.9c0.4,-0.5 -0.2,-1.6 -1.3,-2.5c-1.1,-0.8 -2.4,-1 -2.7,-0.4l-19.2,22.8c-13.6,-5.4 -30.2,-8.8 -50.6,-8.8c-20.5,-0.1 -37.2,3.2 -50.8,8.5l-19,-22.4c-0.4,-0.5 -1.6,-0.4 -2.7,0.4c-1.1,0.8 -1.7,1.8 -1.3,2.5l18.3,21.6c-48.2,20.9 -55.4,72.2 -56.4,87.2l223.6,0c-0.9,-15.1 -8,-65.7 -56.4,-87zm-104.4,49.8c-7.4,0 -13.5,-6 -13.5,-13.3c0,-7.3 6,-13.3 13.5,-13.3c7.4,0 13.5,6 13.5,13.3c0,7.3 -6,13.3 -13.5,13.3zm98.4,0c-7.4,0 -13.5,-6 -13.5,-13.3c0,-7.3 6,-13.3 13.5,-13.3c7.4,0 13.5,6 13.5,13.3c0,7.3 -6.1,13.3 -13.5,13.3z"/>
 </g>
</svg>