<svg width="512" height="512" xmlns="http://www.w3.org/2000/svg">

 <g>
  <title>background</title>
  <rect fill="none" id="canvas_background" height="402" width="582" y="-1" x="-1"/>
 </g>
 <g>
  <title>Layer 1</title>
  <path fill="#1d3a55" id="svg_1" d="m42.1,384l381.1,0c5.5,0 9.9,-4.5 9.9,-10l0,-54l36.9,0c5.6,0 10.1,-4.5 10.1,-10l0,-108c0,-5.5 -4.5,-10 -10.1,-10l-37,0l0,-54c0,-5.5 -4.3,-10 -9.9,-10l-381,0c-5.6,0 -10.1,4.5 -10.1,10l0,236c0,5.5 4.5,10 10.1,10zm215.3,-224l-27.9,81l61.5,0l-100.4,111l27.9,-81l-61.5,0l100.4,-111z"/>
 </g>
</svg>