<?xml version="1.0"?>
<svg xmlns="http://www.w3.org/2000/svg" id="Layer_1" enable-background="new 0 0 256 256" height="512px" viewBox="0 0 256 256" width="512px" class=""><g><g><g><path d="m213.818 8h-143.273c-6.627 0-12 5.373-12 12v82.868l-25.785 16.253c-1.701 1.072-2.733 2.943-2.733 4.954v29.174c0 1.105.895 2 2 2h7.98c.552 0 1 .448 1 1v17.033c0 .552-.448 1-1 1h-7.98c-1.105 0-2 .895-2 2v59.718c0 6.627 5.373 12 12 12h16.518 19.064 136.209c6.627 0 12-5.373 12-12v-216c0-6.627-5.372-12-12-12z" fill="#4671c6" data-original="#4671C6" class="" style="fill:#1D3A55" data-old_color="#4671c6"/></g><g><path d="m201.849 228h-119.016c-5.523 0-10-4.477-10-10v-59.667c0-5.523 4.477-10 10-10h119.016c5.523 0 10 4.477 10 10v59.667c0 5.523-4.477 10-10 10z" fill="#a4c9ff" data-original="#A4C9FF" class="" style="fill:#FFFFFF" data-old_color="#a4c9ff"/></g><g><path d="m92.679 80h-11.338c-2.209 0-4-1.791-4-4v-44.112c0-2.209 1.791-4 4-4h11.338c2.209 0 4 1.791 4 4v44.112c0 2.209-1.791 4-4 4z" fill="#ffea92" data-original="#FFEA92" class="active-path" style="fill:#FFFFFF" data-old_color="#ffea92"/></g><g><path d="m120.439 80h-11.338c-2.209 0-4-1.791-4-4v-44.112c0-2.209 1.791-4 4-4h11.338c2.209 0 4 1.791 4 4v44.112c0 2.209-1.79 4-4 4z" fill="#ffea92" data-original="#FFEA92" class="active-path" style="fill:#FFFFFF" data-old_color="#ffea92"/></g><g><path d="m148.2 80h-11.338c-2.209 0-4-1.791-4-4v-44.112c0-2.209 1.791-4 4-4h11.338c2.209 0 4 1.791 4 4v44.112c0 2.209-1.791 4-4 4z" fill="#ffea92" data-original="#FFEA92" class="active-path" style="fill:#FFFFFF" data-old_color="#ffea92"/></g><g><path d="m175.961 80h-11.338c-2.209 0-4-1.791-4-4v-44.112c0-2.209 1.791-4 4-4h11.338c2.209 0 4 1.791 4 4v44.112c0 2.209-1.791 4-4 4z" fill="#ffea92" data-original="#FFEA92" class="active-path" style="fill:#FFFFFF" data-old_color="#ffea92"/></g><g><path d="m203.341 80h-11.338c-2.209 0-4-1.791-4-4v-44.112c0-2.209 1.791-4 4-4h11.338c2.209 0 4 1.791 4 4v44.112c0 2.209-1.791 4-4 4z" fill="#ffea92" data-original="#FFEA92" class="active-path" style="fill:#FFFFFF" data-old_color="#ffea92"/></g><g><path d="m213.818 250h-171.791c-7.72 0-14-6.28-14-14v-59.717c0-2.206 1.794-4 4-4h6.98v-15.033h-6.98c-2.206 0-4-1.794-4-4v-29.175c0-2.714 1.371-5.199 3.667-6.646l24.851-15.664v-81.765c0-7.72 6.28-14 14-14h143.273c7.72 0 14 6.28 14 14v216c0 7.72-6.28 14-14 14zm-181.791-73.717v59.717c0 5.514 4.486 10 10 10h171.791c5.514 0 10-4.486 10-10v-216c0-5.514-4.486-10-10-10h-143.273c-5.514 0-10 4.486-10 10v82.868c0 .687-.353 1.325-.934 1.692l-25.784 16.253c-1.127.71-1.8 1.93-1.8 3.262v29.175h7.98c1.654 0 3 1.346 3 3v17.033c0 1.654-1.346 3-3 3z" fill="#3762cc" data-original="#3762CC" class="" style="fill:#1D3A55" data-old_color="#3762cc"/></g><g><path d="m201.849 230h-119.016c-6.617 0-12-5.383-12-12v-59.667c0-6.617 5.383-12 12-12h119.016c6.617 0 12 5.383 12 12v59.667c0 6.617-5.383 12-12 12zm-119.016-79.667c-4.411 0-8 3.589-8 8v59.667c0 4.411 3.589 8 8 8h119.016c4.411 0 8-3.589 8-8v-59.667c0-4.411-3.589-8-8-8z" fill="#3762cc" data-original="#3762CC" class="" style="fill:#1D3A55" data-old_color="#3762cc"/></g><g><path d="m92.679 82h-11.338c-3.309 0-6-2.691-6-6v-44.111c0-3.309 2.691-6 6-6h11.338c3.309 0 6 2.691 6 6v44.111c0 3.309-2.692 6-6 6zm-11.338-52.111c-1.103 0-2 .897-2 2v44.111c0 1.103.897 2 2 2h11.338c1.103 0 2-.897 2-2v-44.111c0-1.103-.897-2-2-2z" fill="#3762cc" data-original="#3762CC" class="" style="fill:#1D3A55" data-old_color="#3762cc"/></g><g><path d="m120.439 82h-11.338c-3.309 0-6-2.691-6-6v-44.111c0-3.309 2.691-6 6-6h11.338c3.309 0 6 2.691 6 6v44.111c0 3.309-2.691 6-6 6zm-11.337-52.111c-1.103 0-2 .897-2 2v44.111c0 1.103.897 2 2 2h11.338c1.103 0 2-.897 2-2v-44.111c0-1.103-.897-2-2-2z" fill="#3762cc" data-original="#3762CC" class="" style="fill:#1D3A55" data-old_color="#3762cc"/></g><g><path d="m148.2 82h-11.338c-3.309 0-6-2.691-6-6v-44.111c0-3.309 2.691-6 6-6h11.338c3.309 0 6 2.691 6 6v44.111c0 3.309-2.691 6-6 6zm-11.338-52.111c-1.103 0-2 .897-2 2v44.111c0 1.103.897 2 2 2h11.338c1.103 0 2-.897 2-2v-44.111c0-1.103-.897-2-2-2z" fill="#3762cc" data-original="#3762CC" class="" style="fill:#1D3A55" data-old_color="#3762cc"/></g><g><path d="m175.961 82h-11.338c-3.309 0-6-2.691-6-6v-44.111c0-3.309 2.691-6 6-6h11.338c3.309 0 6 2.691 6 6v44.111c0 3.309-2.691 6-6 6zm-11.338-52.111c-1.103 0-2 .897-2 2v44.111c0 1.103.897 2 2 2h11.338c1.103 0 2-.897 2-2v-44.111c0-1.103-.897-2-2-2z" fill="#3762cc" data-original="#3762CC" class="" style="fill:#1D3A55" data-old_color="#3762cc"/></g><g><path d="m203.341 82h-11.338c-3.309 0-6-2.691-6-6v-44.111c0-3.309 2.691-6 6-6h11.338c3.309 0 6 2.691 6 6v44.111c0 3.309-2.692 6-6 6zm-11.338-52.111c-1.103 0-2 .897-2 2v44.111c0 1.103.897 2 2 2h11.338c1.103 0 2-.897 2-2v-44.111c0-1.103-.897-2-2-2z" fill="#3762cc" data-original="#3762CC" class="" style="fill:#1D3A55" data-old_color="#3762cc"/></g></g></g> </svg>
