<svg width="200" height="200" xmlns="http://www.w3.org/2000/svg">

 <g>
  <title>background</title>
  <rect fill="none" id="canvas_background" height="402" width="582" y="-1" x="-1"/>
 </g>
 <g>
  <title>Layer 1</title>
  <path id="svg_2" fill="#5E889E" d="m143.72,0l-87.442,0c-7.673,0 -13.953,6.28 -13.953,13.955l0,172.09c0,7.677 6.28,13.955 13.953,13.955l87.442,0c7.675,0 13.955,-6.278 13.955,-13.955l0,-172.09c0,-7.675 -6.28,-13.955 -13.955,-13.955zm11.163,186.045c0,6.158 -5.007,11.165 -11.163,11.165l-87.442,0c-6.156,0 -11.163,-5.007 -11.163,-11.165l0,-172.09c0,-6.156 5.007,-11.165 11.163,-11.165l87.442,0c6.156,0 11.163,5.009 11.163,11.165l0,172.09z"/>
  <path id="svg_3" fill="#1d3a55" d="m143.72,4.651l-25.117,0l0,1.859c0,0.715 -0.272,1.429 -0.815,1.975c-0.546,0.545 -1.261,0.817 -1.973,0.817l-31.629,0c-0.714,0 -1.427,-0.272 -1.973,-0.817c-0.545,-0.546 -0.819,-1.26 -0.819,-1.975l0,-1.859l-25.116,0c-5.126,0 -9.299,4.172 -9.299,9.303l0,172.09c0,5.131 4.172,9.303 9.299,9.303l87.442,0c5.129,0 9.301,-4.172 9.301,-9.303l0,-172.089c0,-5.131 -4.172,-9.304 -9.301,-9.304zm-76.277,7.714c1.816,0 3.293,1.474 3.293,3.295c0,1.818 -1.477,3.293 -3.293,3.293c-1.819,0 -3.295,-1.475 -3.295,-3.293c0,-1.821 1.476,-3.295 3.295,-3.295zm32.557,179.731c-3.683,0 -6.667,-2.987 -6.667,-6.671c0,-3.681 2.984,-6.663 6.667,-6.663s6.667,2.982 6.667,6.663c0,3.683 -2.984,6.671 -6.667,6.671zm46.51,-16.591l-93.022,0l0,-148.838l93.022,0l0,148.838z"/>
 </g>
</svg>