<svg width="48.00000000000001" height="48.00000000000001" xmlns="http://www.w3.org/2000/svg">

 <g>
  <title>background</title>
  <rect fill="none" id="canvas_background" height="402" width="582" y="-1" x="-1"/>
 </g>
 <g>
  <title>Layer 1</title>
  <path fill="#1d3a55" id="svg_2" d="m20.596,18.988c1.148,0 2.512,0.362 4.093,1.086l1.398,-3.525c-1.41,-0.628 -2.801,-1.005 -4.17,-1.146l0,-2.569l-3.69,0l0,2.799c-0.837,0.217 -1.563,0.547 -2.163,1.009c-1.133,0.87 -1.699,2.084 -1.699,3.641c0,0.833 0.131,1.554 0.396,2.162c0.267,0.609 0.675,1.149 1.226,1.619c0.551,0.471 1.381,0.955 2.483,1.457c1.216,0.548 1.964,0.909 2.245,1.087c0.282,0.178 0.486,0.353 0.614,0.525c0.126,0.173 0.192,0.376 0.192,0.608c0,0.369 -0.158,0.67 -0.473,0.906c-0.318,0.236 -0.813,0.353 -1.493,0.353c-0.786,0 -1.648,-0.127 -2.587,-0.377c-0.942,-0.25 -1.847,-0.6 -2.719,-1.046l0,4.069c0.825,0.393 1.619,0.668 2.381,0.826c0.461,0.094 1.007,0.152 1.597,0.189l0,2.504l3.69,0l0,-2.764c0.374,-0.104 0.738,-0.217 1.073,-0.369c1,-0.449 1.768,-1.084 2.298,-1.896c0.535,-0.811 0.799,-1.742 0.799,-2.791c0,-1.141 -0.284,-2.086 -0.852,-2.837c-0.566,-0.751 -1.576,-1.455 -3.032,-2.11c-1.519,-0.694 -2.452,-1.171 -2.794,-1.434c-0.342,-0.262 -0.512,-0.559 -0.512,-0.891c0,-0.308 0.133,-0.566 0.406,-0.774c0.269,-0.207 0.698,-0.311 1.293,-0.311z"/>
  <path fill="#1d3a55" id="svg_3" d="m46.683,17.786l-2.383,0l-0.104,0l0,-14.914l-25.893,0l-0.207,0l-14.836,0l-1.942,0l-1.243,0l0,42.257l1.243,0l1.942,0l14.837,0l0.207,0l25.893,0l0,-14.914l0.103,0l2.383,0l1.242,0l0,-12.429l-1.242,0zm-7.458,22.37l-20.922,0l-0.207,0l-10.855,0l-0.952,0l-1.243,0l0,-0.102l0,-0.926l0,-31.285l1.243,0l1.191,0l10.616,0l0.207,0l20.921,0l0,9.943l-1.553,0c-3.433,0 -6.215,2.782 -6.215,6.214c0,3.433 2.782,6.215 6.215,6.215c0.053,0 0.103,-0.012 0.155,-0.012l0,0.012l1.397,0l0,9.941l0.002,0zm5.075,-13.67l-0.104,0l-0.835,0l-4.137,0l-1.397,0l-0.155,0l0,-0.016c-1.299,-0.082 -2.331,-1.15 -2.331,-2.471c0,-1.319 1.032,-2.388 2.331,-2.47l0,-0.016l1.553,0l4.137,0l0.835,0l0.103,0l0,4.973z"/>
 </g>
</svg>