<svg width="300" height="300" xmlns="http://www.w3.org/2000/svg">

 <g>
  <title>background</title>
  <rect fill="none" id="canvas_background" height="402" width="582" y="-1" x="-1"/>
 </g>
 <g>
  <title>Layer 1</title>
  <path id="svg_1" fill="#EBEBEB" d="m193.603,5.167l-91.334,0c-26,1 -28.333,27.333 -28.333,27.333l0.667,235.333c2.834,24 24.333,27 24.333,27l94,0c27,-2 29,-26.666 29,-26.666l0,-235.667c-3.667,-26.667 -28.333,-27.333 -28.333,-27.333z"/>
  <rect id="svg_2" y="31.499" x="81.186" width="133.5" height="230.5" fill="#cccccc"/>
  <path id="svg_3" fill="#7B7C7C" d="m104.852,19.832c0,1.288 -1.045,2.333 -2.333,2.333l0,0c-1.288,0 -2.333,-1.045 -2.333,-2.333l0,0c0,-1.288 1.045,-2.333 2.333,-2.333l0,0c1.288,0 2.333,1.045 2.333,2.333l0,0z"/>
  <path id="svg_4" fill="#7B7C7C" d="m172.602,19.832c0,1.288 -1.044,2.333 -2.333,2.333l0,0c-1.289,0 -2.333,-1.045 -2.333,-2.333l0,0c0,-1.288 1.044,-2.333 2.333,-2.333l0,0c1.289,0 2.333,1.045 2.333,2.333l0,0z"/>
  <path id="svg_5" fill="#7B7C7C" d="m179.477,19.832c0,1.288 -1.044,2.333 -2.333,2.333l0,0c-1.289,0 -2.333,-1.045 -2.333,-2.333l0,0c0,-1.288 1.044,-2.333 2.333,-2.333l0,0c1.289,0 2.333,1.045 2.333,2.333l0,0z"/>
  <path id="svg_6" fill="#7B7C7C" d="m195.602,20.832c0,2.047 -1.659,3.708 -3.708,3.708l0,0c-2.049,0 -3.708,-1.661 -3.708,-3.708l0,0c0,-2.047 1.659,-3.708 3.708,-3.708l0,0c2.048,0 3.708,1.661 3.708,3.708l0,0z"/>
  <path id="svg_7" fill="#7B7C7C" d="m163.019,15.374c0,0.967 -0.783,1.75 -1.75,1.75l-28.625,0c-0.966,0 -1.75,-0.783 -1.75,-1.75l0,0c0,-0.967 0.784,-1.75 1.75,-1.75l28.625,0c0.966,0 1.75,0.783 1.75,1.75l0,0z"/>
  <path id="svg_8" fill="#D6D6D6" d="m165.086,277.523c-0.551,-0.774 -1.259,-0.921 -1.396,-0.942l-0.078,-0.013l-31.356,0l-0.077,0.013c-0.136,0.021 -0.845,0.168 -1.395,0.941c-0.622,0.875 -0.782,2.18 -0.478,3.878c0.381,2.124 1.745,4.775 6.076,5.341l0.064,0.009l22.974,0l0.064,-0.009c4.33,-0.565 5.694,-3.217 6.077,-5.341c0.307,-1.698 0.146,-3.003 -0.475,-3.877zm-0.507,3.701c-0.611,3.396 -3.221,4.265 -5.223,4.526l-11.421,0l-11.422,0c-2.002,-0.262 -4.612,-1.131 -5.222,-4.526c-0.609,-3.394 1.044,-3.655 1.044,-3.655l15.6,0l15.599,0c0,-0.001 1.654,0.261 1.045,3.655z"/>
 </g>
</svg>