<svg width="512" height="512" xmlns="http://www.w3.org/2000/svg">

 <g>
  <title>background</title>
  <rect fill="none" id="canvas_background" height="402" width="582" y="-1" x="-1"/>
 </g>
 <g>
  <title>Layer 1</title>
  <path fill="#e5e5e5" id="svg_1" d="m380.9,6l-249.8,0c-16.6,0 -30,13.4 -30,30l0,440c0,16.6 13.4,30 30,30l249.8,0c16.6,0 30,-13.4 30,-30l0,-440c0,-16.6 -13.4,-30 -30,-30zm-170.3,23l90.8,0c2,0 3.6,1.6 3.6,3.6s-1.6,3.6 -3.6,3.6l-90.8,0c-2,0 -3.6,-1.6 -3.6,-3.6s1.6,-3.6 3.6,-3.6zm-11,448.6l-35.3,0c-5.3,0 -9.5,-4.3 -9.5,-9.5s4.3,-9.5 9.5,-9.5l35.3,0c5.3,0 9.5,4.3 9.5,9.5s-4.2,9.5 -9.5,9.5zm76.2,-1.8c0,6.7 -5.4,12.1 -12.1,12.1l-15.5,0c-6.7,0 -12.1,-5.4 -12.1,-12.1l0,-15.5c0,-6.7 5.4,-12.1 12.1,-12.1l15.5,0c6.7,0 12.1,5.4 12.1,12.1l0,15.5zm71.8,1.8l-35.3,0c-5.3,0 -9.5,-4.3 -9.5,-9.5s4.3,-9.5 9.5,-9.5l35.3,0c5.3,0 9.5,4.3 9.5,9.5s-4.2,9.5 -9.5,9.5zm47.8,-46.7l-278.8,0l0,-370.4l278.8,0l0,370.4z"/>
 </g>
</svg>